<svg xmlns="http://www.w3.org/2000/svg" xml:space="preserve" width="512" height="512" style="enable-background:new 0 0 512 512"><g xmlns="http://www.w3.org/2000/svg"><path fill="#cfe6e6" d="M187.006 124.003 61 218.5V406l15 30v61h150V166z" data-original="#cfe6e6"/><path fill="#7ed8f6" d="M301 0h30v76h-30z" data-original="#7ed8f6"/><path fill="#6aa9ff" d="M316 0h15v76h-15z" data-original="#6aa9ff"/><path fill="#e6f2f2" d="M451 61v360l-15 30v46H181V61z" data-original="#e6f2f2"/><path fill="#cfe6e6" d="M451 61v360l-15 30v46H316V61z" data-original="#cfe6e6"/><path fill="#7ed8f6" d="M241 121h30v30h-30zm60 0h30v30h-30z" data-original="#7ed8f6"/><path fill="#6aa9ff" d="M361 121h30v30h-30z" data-original="#6aa9ff"/><path fill="#7ed8f6" d="M241 181h30v30h-30z" data-original="#7ed8f6"/><path fill="#6aa9ff" d="M121 241h30v30h-30zm0 60h30v30h-30z" data-original="#6aa9ff"/><path fill="#7ed8f6" d="M301 181h30v30h-30z" data-original="#7ed8f6"/><path fill="#6aa9ff" d="M361 181h30v30h-30z" data-original="#6aa9ff"/><path fill="#7ed8f6" d="M241 241h30v30h-30zm60 0h30v30h-30z" data-original="#7ed8f6"/><path fill="#6aa9ff" d="M361 241h30v30h-30z" data-original="#6aa9ff"/><path fill="#7ed8f6" d="M241 301h30v30h-30zm60 0h30v30h-30z" data-original="#7ed8f6"/><path fill="#6aa9ff" d="M361 301h30v30h-30zm-45-180h15v30h-15zm0 60h15v30h-15zm0 60h15v30h-15zm0 60h15v30h-15z" data-original="#6aa9ff"/><path fill="#384949" d="M421 436h30v61h-30z" data-original="#384949"/><path fill="#4a696f" d="M61 436h30v61H61z" data-original="#4a696f"/><path fill="#c3ea21" d="M76 451c-25.239 0-46-26.353-46-60s20.761-60 46-60 45 26.353 45 60-19.761 60-45 60z" data-original="#c3ea21"/><path fill="#9cdd05" d="M436 451c-25.239 0-45-26.353-45-60s19.761-60 45-60 45 26.353 45 60-19.761 60-45 60z" data-original="#9cdd05"/><path fill="#384949" d="M271 391h90v106h-90z" data-original="#384949"/><path fill="#293939" d="M316 391h45v106h-45z" data-original="#293939"/><path fill="#c3ea21" d="M0 482h512v30H0z" data-original="#c3ea21"/><path fill="#9cdd05" d="M316 482h196v30H316z" data-original="#9cdd05"/></g></svg>