<svg xmlns="http://www.w3.org/2000/svg" xml:space="preserve" width="512" height="512" style="enable-background:new 0 0 512 512"><circle xmlns="http://www.w3.org/2000/svg" cx="256.017" cy="256.006" r="218.988" fill="#72d8ff" data-original="#72d8ff"/><path xmlns="http://www.w3.org/2000/svg" fill="#a0e557" d="M391.027 125.677c-25.448 0-46.077 20.629-46.077 46.076 0 9.451-7.663 17.114-17.114 17.114-16.722 0-30.278 13.556-30.278 30.278v6.583c0 16.722 13.556 30.278 30.278 30.278h147.17c0-48.825-15.985-93.913-42.999-130.33l-40.98.001zm-96.581 223.767h-10.667c-7.824 0-14.165-6.343-14.165-14.165V292.38c0-20.088-16.284-36.372-36.372-36.372h-57.267c-13.164 0-23.836 10.671-23.836 23.836a5.96 5.96 0 0 1-5.959 5.959h-.89c-20.195 0-36.565 16.371-36.564 36.566v.004c.001 20.193 16.371 36.562 36.564 36.562h14.855c10.386 0 18.807 8.42 18.807 18.806.001 16.917 13.715 30.63 30.631 30.63h46.635c16.917 0 30.631 13.714 30.631 30.631v33.822a217.715 217.715 0 0 0 38.426-9.017v-83.532c.001-17.028-13.802-30.831-30.829-30.831z" data-original="#a0e557"/><path xmlns="http://www.w3.org/2000/svg" fill="#fff" d="M264.087 10.637a70.75 70.75 0 0 1-20.109 59.32l-30.648 30.647 49.282 102.657-20.283 20.283-65.861-86.078-59.735 59.735h-.147l3.862 42.848-24.506 24.507-18.465-67.308-67.308-18.464 24.507-24.507 42.848 3.862v-.147l59.735-59.735-86.08-65.862 20.283-20.283L174.12 61.394l30.647-30.647a70.75 70.75 0 0 1 59.32-20.11z" data-original="#ffffff"/><path xmlns="http://www.w3.org/2000/svg" d="M484.882 27.144C446.845-10.893 376-8.351 295.108 31.07a10.013 10.013 0 0 0-4.569 2.261 459.386 459.386 0 0 0-19.483 10.388c3.405-11.021 4.483-22.771 2.943-34.395a10 10 0 0 0-8.6-8.6c-24.743-3.278-50.054 5.302-67.703 22.952l-25.638 25.638L75.79 3.098a9.998 9.998 0 0 0-11.398 1.944L44.108 25.324a9.998 9.998 0 0 0 .995 15.013l77.01 58.923-48.486 48.487-38.054-3.429a10.007 10.007 0 0 0-7.969 2.888L3.098 171.711a10.001 10.001 0 0 0 4.425 16.714l27.471 7.536c-5.283 19.493-7.965 39.644-7.965 60.046 0 13.496 1.198 27.004 3.535 40.198-12.33 25.548-21.139 50.443-26.073 73.966-10.438 49.773-2.603 89.435 22.662 114.7 17.814 17.815 43.525 27.12 74.705 27.12 2.546 0 5.133-.062 7.751-.187 31.382-1.494 68.023-11.997 106.12-30.362a229.534 229.534 0 0 0 40.288 3.555c47.004 0 92.173-14.138 130.621-40.886 4.533-3.154 5.652-9.385 2.498-13.919-3.154-4.534-9.387-5.651-13.919-2.498-23.767 16.534-50.352 27.779-78.368 33.317v-22.007c0-22.404-18.228-40.631-40.632-40.631h-46.635c-11.375 0-20.631-9.255-20.632-20.632-.002-15.883-12.924-28.805-28.807-28.805h-14.855c-14.646 0-26.563-11.916-26.564-26.567 0-7.097 2.763-13.767 7.78-18.785s11.688-7.782 18.784-7.782h.89c8.801 0 15.959-7.159 15.959-15.958 0-7.63 6.207-13.836 13.835-13.836h57.268c14.542 0 26.373 11.831 26.373 26.373v42.899c0 13.324 10.84 24.165 24.166 24.165h10.667c11.486 0 20.831 9.344 20.831 20.832v24.214c0 5.523 4.478 9.999 9.999 9.999 5.522 0 9.999-4.477 9.999-9.999v-24.214c0-22.514-18.316-40.831-40.83-40.831h-10.667a4.171 4.171 0 0 1-4.167-4.166v-42.9c0-25.57-20.803-46.371-46.371-46.371h-57.268c-17.319 0-31.641 13.082-33.604 29.883-11.339.697-21.902 5.447-30.005 13.55-8.795 8.795-13.638 20.489-13.637 32.931.001 25.674 20.89 46.56 46.562 46.56h14.855c4.856 0 8.809 3.952 8.809 8.808.001 22.403 18.228 40.63 40.631 40.63h46.635c11.377 0 20.633 9.256 20.633 20.632v24.615c0 .117.014.231.018.348a212.022 212.022 0 0 1-20.851 1.031c-98.986 0-184.306-69.467-204.519-165.8 8.405-16.755 18.351-33.796 29.655-50.746l5.144 18.751a9.998 9.998 0 0 0 16.715 4.425l24.507-24.506a10.004 10.004 0 0 0 2.889-7.969l-3.43-38.053 48.487-48.487 58.922 77.011a9.999 9.999 0 0 0 15.013.994l20.283-20.283a9.997 9.997 0 0 0 1.943-11.398l-46.215-96.27 18.382-18.382c18.737-12.801 37.287-23.759 55.31-32.813 44.329 9.279 82.977 32.355 111.794 64.208h-19.87c-30.92 0-56.076 25.156-56.076 56.076a7.123 7.123 0 0 1-7.115 7.115c-22.21 0-40.278 18.069-40.278 40.278v6.583c0 22.209 18.068 40.278 40.278 40.278h78.218c5.522 0 9.999-4.477 9.999-9.999s-4.478-9.999-9.999-9.999h-78.218c-11.182 0-20.279-9.097-20.279-20.279v-6.583c0-11.182 9.098-20.279 20.279-20.279 14.95 0 27.113-12.163 27.113-27.114 0-19.893 16.184-36.077 36.077-36.077h28.962c2.096 0 4.04-.648 5.647-1.75 24.892 34.598 39.371 76.924 39.371 122.081 0 34.579-8.618 68.832-24.921 99.06-2.621 4.861-.807 10.926 4.055 13.547a9.961 9.961 0 0 0 4.738 1.201 10 10 0 0 0 8.811-5.255c17.871-33.134 27.316-70.671 27.316-108.553 0-13.703-1.218-27.169-3.556-40.282 18.381-38.128 28.886-74.799 30.368-106.199 1.634-34.642-7.68-63.13-26.936-82.385zM184.328 473.496c-63.116 25.425-115.513 24.755-143.032-2.766-25.594-25.593-23.496-66.578-17.23-96.453 3.091-14.734 7.97-30.332 14.451-46.424 22.881 69.506 77.684 123.179 145.811 145.643zm-137.1-208.543c-.126-2.98-.198-5.964-.198-8.947 0-18.61 2.442-36.986 7.252-54.755l15.058 4.131 4.901 17.863c-9.933 13.935-18.953 27.873-27.013 41.708zm157.087-160.021 46.215 96.27-7.199 7.199-58.921-77.011a9.999 9.999 0 0 0-15.013-.994l-58.789 58.789a9.999 9.999 0 0 0-3.981 8.914l3.441 38.188-9.035 9.035L87.121 194.6a10.001 10.001 0 0 0-6.998-6.998L29.402 173.69l9.035-9.036 38.188 3.441a9.98 9.98 0 0 0 7.644-2.578 9.94 9.94 0 0 0 1.269-1.401l58.791-58.791a9.998 9.998 0 0 0-.995-15.013L66.324 31.39l7.199-7.199 96.27 46.215a9.998 9.998 0 0 0 11.398-1.944l30.647-30.647c11.358-11.359 26.933-17.725 42.852-17.784-.06 15.919-6.426 31.494-17.784 42.853l-6.711 6.711-.005.006-23.932 23.932a10 10 0 0 0-1.943 11.399zm269.186 79.397C451.023 116.185 397.309 61.35 327.773 38.483c62.141-24.988 115.094-25.072 142.967 2.803 27.518 27.517 28.188 79.924 2.761 143.043z" data-original="#000000"/><path xmlns="http://www.w3.org/2000/svg" d="M426.776 393.583c-4.171-3.732-10.408-3.348-14.203.874l-.051.057c-3.762 4.252-3.432 10.493.753 14.21 1.918 1.703 4.265 2.54 6.609 2.54 2.774 0 5.545-1.172 7.592-3.468 3.776-4.237 3.471-10.48-.7-14.213z" data-original="#000000"/></svg>